<svg width="220" height="210" xmlns="http://www.w3.org/2000/svg" xmlns:xlink="http://www.w3.org/1999/xlink" xml:space="preserve" overflow="hidden"><g transform="translate(-145 -15)"><path d="M115.101 173.036 121.645 173.036C125.494 173.036 127.804 175.346 127.804 178.425L127.804 178.425C127.804 182.082 124.917 184.007 121.26 184.007L118.565 184.007 118.565 188.819 115.101 188.819 115.101 172.843ZM121.452 180.927C123.185 180.927 124.339 179.965 124.339 178.425L124.339 178.425C124.339 176.693 123.185 175.923 121.452 175.923L118.758 175.923 118.758 180.735 121.645 180.735Z" fill="#576671" fill-rule="evenodd" transform="matrix(1 0 0 1.00758 145 15.3726)"/><path d="M130.114 181.505 130.114 181.505C130.114 176.885 133.771 173.036 138.583 173.036 143.395 173.036 147.052 176.693 147.052 181.312L147.052 181.312C147.052 185.932 143.395 189.781 138.583 189.781 133.771 189.781 130.114 186.124 130.114 181.505M143.587 181.505 143.587 181.505C143.587 178.618 141.662 176.5 138.775 176.5 135.888 176.5 133.963 178.81 133.963 181.505L133.963 181.505C133.963 184.392 135.888 186.702 138.775 186.702 141.662 186.702 143.587 184.392 143.587 181.697" fill="#576671" fill-rule="evenodd" transform="matrix(1 0 0 1.00758 145 15.3726)"/><path d="M148.206 173.036 152.056 173.036 155.328 183.622 158.985 173.036 162.065 173.036 165.722 183.622 169.186 173.036 172.843 173.036 167.262 188.819 164.182 188.819 160.525 178.425 156.868 188.819 153.788 188.819 148.399 173.036Z" fill="#576671" fill-rule="evenodd" transform="matrix(1 0 0 1.00758 145 15.3726)"/><path d="M174.768 173.036 186.317 173.036 186.317 176.115 178.04 176.115 178.04 179.388 185.354 179.388 185.354 182.467 178.04 182.467 178.04 185.739 186.317 185.739 186.317 188.819 174.576 188.819 174.576 173.036Z" fill="#576671" fill-rule="evenodd" transform="matrix(1 0 0 1.00758 145 15.3726)"/><path d="M189.781 173.036 197.095 173.036C199.213 173.036 200.752 173.613 201.715 174.576 202.677 175.538 203.062 176.693 203.062 178.233L203.062 178.233C203.062 180.927 201.715 182.467 199.598 183.237L203.447 188.819 199.213 188.819 195.748 183.815 193.053 183.815 193.053 188.819 189.589 188.819 189.589 173.036 189.589 173.036ZM196.71 180.735C198.443 180.735 199.405 179.773 199.405 178.425L199.405 178.425C199.405 176.885 198.443 176.115 196.71 176.115L193.246 176.115 193.246 180.735 196.71 180.735Z" fill="#576671" fill-rule="evenodd" transform="matrix(1 0 0 1.00758 145 15.3726)"/><path d="M94.3132 69.0989 112.406 57.5503 123.955 75.643 105.862 87.1916 94.3132 69.0989ZM86.6142 67.3666 104.129 94.6982 131.461 77.1828 113.946 49.8513 86.6142 67.3666ZM97.7778 100.665C96.8154 99.895 96.0455 99.3176 95.2756 98.5477 92.7734 96.6229 90.0787 94.5057 84.6894 87.3841 79.4926 79.4926 77.5678 72.3709 78.9151 66.2117 80.07 60.6299 84.112 55.6255 90.2712 51.5835 95.0831 48.5039 99.895 46.9641 101.242 46.5792 105.862 45.2318 110.866 43.8845 115.678 43.8845 120.49 43.8845 125.109 45.4243 129.151 48.8889L129.151 48.8889C129.151 48.8889 129.151 49.0814 129.151 49.0814 137.813 55.4331 141.277 65.6343 138.968 79.3001L138.968 79.3001C138.968 79.3001 138.775 80.2625 138.775 80.2625 137.043 85.6518 136.465 87.1916 133.578 88.9239 131.076 90.4637 126.649 92.196 119.72 94.6982 118.758 95.0831 117.41 95.6605 115.486 96.8154 111.636 98.9326 106.054 102.012 101.627 102.012 97.2003 102.012 98.7402 101.627 97.7778 100.665M99.5101 41.1898C97.9703 41.5748 92.5809 43.4996 87.1916 46.9641 79.685 51.776 74.8731 58.1277 73.3333 65.0569 71.6011 72.7559 73.9108 81.4173 80.07 90.6562 86.0367 98.5477 89.3088 101.05 92.0035 102.975 92.7734 103.552 93.5433 104.129 94.1207 104.707 96.4304 106.824 98.9326 107.594 101.82 107.594 107.594 107.594 113.946 104.129 118.373 101.627 119.72 100.857 121.067 100.087 121.837 99.895 129.344 97.2003 133.963 95.4681 136.85 93.5433 141.277 90.6562 142.432 87.3841 144.164 81.8023L144.549 80.8399 144.549 80.2625C147.244 64.287 143.01 51.9685 132.616 44.4619 127.034 39.8425 121.26 38.3027 115.678 38.3027 110.096 38.3027 104.899 39.65 99.7025 41.1898M93.7358 112.983 91.811 111.636C86.8066 107.787 84.8819 106.439 72.1785 99.7025L72.1785 99.7025C61.2073 92.3885 58.5127 78.5302 65.0569 61.9773 69.8688 49.6588 78.9151 37.9178 88.154 31.951 89.8863 30.9886 91.4261 30.0262 92.9659 29.4488 103.167 25.2143 109.519 23.6745 114.716 23.6745 119.913 23.6745 127.996 26.5617 139.353 34.4532 150.324 42.1522 156.098 50.4287 157.445 59.86 158.408 67.1741 156.675 74.6807 155.136 81.2248L154.366 84.3045C153.018 90.6562 148.784 95.853 141.662 100.28 137.235 103.167 132.423 105.092 128.574 106.824L128.381 106.824C127.034 107.594 125.687 107.979 124.724 108.556 123.185 109.326 121.452 110.289 119.72 111.251 115.486 113.753 110.289 116.833 104.707 116.833 99.1251 116.833 97.3928 115.486 93.7358 112.791M91.0411 24.252C89.1164 25.0219 87.1916 25.9843 85.2668 27.3316 75.0656 33.8758 65.0569 46.7717 60.0525 60.0525 52.7384 79.1076 56.203 95.853 69.4838 104.514L69.8688 104.514C82.7647 111.636 84.3045 112.598 88.9239 116.063L90.8486 117.41C95.853 121.26 100.665 122.607 105.092 122.607 112.213 122.607 118.373 118.95 122.992 116.255 124.532 115.293 126.072 114.331 127.612 113.753 128.766 113.176 129.921 112.791 131.269 112.213 135.311 110.481 140.315 108.364 145.127 105.284 153.403 99.895 158.408 93.5433 160.14 85.8443L160.91 82.7647C162.642 75.643 164.567 67.5591 163.412 59.2826 161.872 48.119 155.136 38.4952 143.01 30.0262 131.461 21.9423 123.955 18.2852 115.293 18.2852 106.632 18.2852 101.435 20.4025 91.4261 24.4444" fill="#00943C" transform="matrix(1 0 0 1.00758 145 15.3726)"/><path d="M166.684 165.722C161.68 165.722 158.023 164.567 155.521 162.065 153.018 159.563 151.864 156.29 151.864 152.056 151.864 147.822 153.018 144.934 155.521 142.432 158.023 139.93 161.102 138.775 165.144 138.775 169.186 138.775 172.266 139.93 174.383 142.047 176.5 144.164 177.463 147.244 177.463 150.901 177.463 154.558 177.463 153.981 176.693 153.981L159.178 153.981C159.178 153.981 159.178 153.981 159.178 153.981L159.178 154.751C159.178 156.868 160.332 158.215 162.642 159.178 164.759 160.14 167.069 160.14 167.839 160.14 170.726 160.14 173.228 159.755 175.538 159.178 175.538 159.178 175.538 159.178 175.538 159.178L175.538 163.605C175.538 163.605 175.538 163.605 175.538 163.797 173.228 164.759 170.341 165.337 166.684 165.337ZM164.759 143.78C163.027 143.78 161.487 144.357 160.525 145.319 159.37 146.474 158.793 147.629 158.793 149.169L158.793 149.939C158.793 149.939 158.793 149.939 158.793 149.939L170.149 149.939C170.149 149.939 170.149 149.939 170.149 149.939L170.149 148.784C170.149 147.244 169.571 146.089 168.609 145.127 167.647 144.164 166.299 143.78 164.374 143.78ZM61.3998 165.722C56.3954 165.722 52.7384 164.567 50.2362 162.065 47.734 159.563 46.5792 156.29 46.5792 152.056 46.5792 147.822 47.734 144.934 50.2362 142.432 52.7384 139.93 55.818 138.775 59.86 138.775 63.902 138.775 66.9816 139.93 69.0989 142.047 71.2161 144.164 72.1785 147.244 72.1785 150.901 72.1785 154.558 72.1785 153.981 71.4086 153.981L53.8933 153.981C53.8933 153.981 53.8933 153.981 53.8933 153.981L53.8933 154.751C53.8933 156.868 55.0481 158.215 57.3578 159.178 59.4751 160.14 61.7848 160.14 62.5547 160.14 65.4418 160.14 67.944 159.755 70.2537 159.178 70.2537 159.178 70.2537 159.178 70.2537 159.178L70.2537 163.605C70.2537 163.605 70.2537 163.605 70.2537 163.797 67.944 164.759 65.0569 165.337 61.3998 165.337ZM59.6675 143.78C57.9353 143.78 56.3954 144.357 55.4331 145.319 54.2782 146.474 53.7008 147.629 53.7008 149.169L53.7008 149.939C53.7008 149.939 53.7008 149.939 53.7008 149.939L65.0569 149.939C65.0569 149.939 65.0569 149.939 65.0569 149.939L65.0569 148.784C65.0569 147.244 64.4794 146.089 63.5171 145.127 62.5547 144.164 61.2073 143.78 59.2826 143.78ZM101.627 164.759 93.3508 151.864C93.3508 151.864 94.1207 151.286 94.3132 151.286 100.857 145.897 101.242 140.7 101.242 139.16 101.242 138.775 101.242 138.775 101.05 138.775L95.0831 138.775C94.8906 138.775 94.6982 138.775 94.6982 139.16 94.6982 140.315 94.6982 141.47 94.3132 142.432 94.1207 143.202 93.7358 143.78 93.5433 144.549 93.1584 145.319 92.3885 146.282 91.4261 147.244L91.0411 147.629 85.4593 138.968C85.4593 138.968 85.2668 138.775 85.0744 138.775L78.9151 138.775C78.9151 138.775 78.7227 138.775 78.5302 138.775 78.5302 138.775 78.5302 139.16 78.5302 139.353L86.2292 151.286 85.4593 151.864C83.9195 153.018 82.7647 154.173 81.6098 155.521 80.2625 157.253 79.1076 158.985 78.5302 160.91 78.1452 162.257 77.7603 163.605 77.7603 165.144 77.7603 165.144 77.7603 165.337 77.9528 165.529L83.9195 165.529C84.112 165.529 84.3045 165.529 84.3045 165.144 84.3045 164.759 84.3045 164.182 84.3045 163.412 84.3045 162.835 84.4969 162.065 84.8819 161.295L84.8819 161.295C85.0744 160.332 85.4593 159.755 85.8443 158.985 85.8443 158.793 86.0367 158.6 86.4217 158.215 86.8066 157.638 87.1916 157.253 87.769 156.675 87.769 156.675 88.154 156.29 88.3465 156.098L88.7314 155.713 88.7314 155.713C88.7314 155.713 94.8906 165.337 94.8906 165.337 94.8906 165.337 95.0831 165.529 95.2756 165.529L101.435 165.529C101.435 165.529 101.627 165.529 101.82 165.529 101.82 165.529 101.82 165.144 101.82 164.952ZM40.035 165.722C40.2275 165.722 40.2275 165.722 40.2275 165.529L40.2275 147.437C40.2275 141.662 37.3403 138.583 31.7585 138.583 26.1767 138.583 25.5993 139.545 22.9046 142.432L22.3272 143.01 21.3648 140.122C20.9799 139.16 20.5949 138.583 18.8626 138.583 17.1304 138.583 16.5529 138.583 16.5529 139.93L16.5529 165.529C16.5529 165.722 16.7454 165.722 16.7454 165.722L22.9046 165.722C23.0971 165.722 23.0971 165.529 23.0971 165.529 23.0971 165.529 23.0971 149.361 23.0971 149.361 23.0971 148.206 23.4821 147.244 24.252 146.474 25.4068 145.127 27.5241 144.164 29.4488 144.164 31.3736 144.164 33.6833 144.934 33.6833 148.784L33.6833 165.529C33.6833 165.722 33.8758 165.722 33.8758 165.722L40.035 165.722ZM196.325 165.529 196.325 130.306C196.325 130.306 196.325 130.306 196.325 130.306L202.87 130.306C202.87 130.306 202.87 130.306 202.87 130.306L202.87 165.529C202.87 165.529 202.87 165.529 202.87 165.529L196.325 165.529C196.325 165.529 196.325 165.529 196.325 165.529ZM183.045 165.529 183.045 130.306C183.045 130.306 183.045 130.306 183.045 130.306L189.589 130.306C189.589 130.306 189.589 130.306 189.589 130.306L189.589 165.529C189.589 165.529 189.589 165.529 189.589 165.529L183.045 165.529C183.045 165.529 183.045 165.529 183.045 165.529ZM140.507 165.529C140.507 165.529 140.507 165.529 140.507 165.529 140.507 165.529 147.629 141.085 148.206 138.968 148.206 138.968 148.206 138.968 148.206 138.968 148.206 138.968 148.206 138.968 148.206 138.968L141.662 138.968C141.662 138.968 141.662 138.968 141.662 138.968L137.043 156.29C137.043 156.868 136.85 157.253 136.273 157.253 135.696 157.253 135.696 156.868 135.503 156.29L130.499 139.16C130.499 139.16 130.499 139.16 130.499 139.16L124.147 139.16C124.147 139.16 124.147 139.16 124.147 139.16L119.143 156.29C119.143 156.868 118.758 157.253 118.373 157.253 117.988 157.253 117.795 156.868 117.603 156.29L112.791 138.968C112.791 138.968 112.791 138.968 112.791 138.968L106.247 138.968C106.247 138.968 106.247 138.968 106.247 138.968 106.247 138.968 106.247 138.968 106.247 138.968 107.209 142.24 113.946 165.529 113.946 165.529 113.946 165.529 113.946 165.529 113.946 165.529L122.03 165.529C122.03 165.529 122.03 165.529 122.03 165.529L126.457 150.131C126.457 149.554 126.842 149.169 127.227 149.169 127.612 149.169 127.996 149.554 127.996 150.131L132.423 165.529C132.423 165.529 132.423 165.529 132.423 165.529L140.507 165.529Z" fill="#576671" transform="matrix(1 0 0 1.00758 145 15.3726)"/></g></svg>